<svg width="425.994" height="116.952" viewBox="0 0 425.994 116.952" xmlns="http://www.w3.org/2000/svg"><g id="svgGroup" stroke-linecap="round" fill-rule="evenodd" font-size="9pt" stroke="#fff" stroke-width="0.25mm" fill="white" style="stroke:#fff;stroke-width:0.25mm;fill:white"><path d="M 50.48 74.349 A 26.327 26.327 0 0 0 52.734 65.649 A 15.989 15.989 0 0 0 52.778 64.468 Q 52.778 62.383 52.246 60.181 A 19.636 19.636 0 0 0 51.898 58.924 A 21.81 21.81 0 0 0 50 54.614 A 24.039 24.039 0 0 0 46.094 49.536 A 24.497 24.497 0 0 0 45.947 49.39 A 26.1 26.1 0 0 0 40.723 45.435 A 48.199 48.199 0 0 0 47.656 39.624 A 55.751 55.751 0 0 0 48.801 38.427 A 49.084 49.084 0 0 0 53.125 33.081 Q 55.469 29.712 56.885 26.245 A 26.913 26.913 0 0 0 57.789 23.679 A 21.45 21.45 0 0 0 58.594 19.556 A 18.657 18.657 0 0 0 58.652 18.087 A 16.59 16.59 0 0 0 57.715 12.524 Q 56.543 9.204 53.857 6.714 A 16.898 16.898 0 0 0 50.577 4.357 A 22.833 22.833 0 0 0 46.973 2.759 A 21.728 21.728 0 0 0 46.299 2.536 Q 42.325 1.294 37.109 1.294 A 37.735 37.735 0 0 0 36.748 1.296 A 33.912 33.912 0 0 0 34.473 1.392 A 37.208 37.208 0 0 0 33.832 1.447 A 42.046 42.046 0 0 0 31.836 1.685 A 2.139 2.139 0 0 0 31.489 1.336 Q 30.953 0.904 29.987 0.586 A 10.87 10.87 0 0 0 29.004 0.317 A 24.256 24.256 0 0 0 28.285 0.185 A 20.304 20.304 0 0 0 27.148 0.024 A 3.922 3.922 0 0 0 26.715 0 A 3.465 3.465 0 0 0 25.488 0.22 A 2.654 2.654 0 0 0 25.131 0.386 Q 24.538 0.715 23.975 1.392 Q 23.488 1.975 23.066 2.903 A 12.723 12.723 0 0 0 22.656 3.931 A 103.076 103.076 0 0 0 20.862 4.631 A 120.88 120.88 0 0 0 16.748 6.372 Q 13.672 7.739 10.449 9.692 A 7.127 7.127 0 0 0 10.301 9.979 A 6.151 6.151 0 0 0 9.717 11.89 A 11.073 11.073 0 0 0 9.657 12.462 Q 9.621 12.926 9.631 13.342 A 6.481 6.481 0 0 0 9.668 13.892 A 21.434 21.434 0 0 0 9.708 14.291 A 18.995 18.995 0 0 0 9.961 15.942 Q 10.547 17.896 11.963 18.335 Q 13.379 18.774 14.844 17.407 A 61.231 61.231 0 0 1 15.524 16.785 A 53.317 53.317 0 0 1 17.529 15.063 Q 18.848 13.989 20.215 13.013 A 608.422 608.422 0 0 1 20.186 13.116 Q 19.603 15.23 18.549 18.991 A 4395.103 4395.103 0 0 1 17.773 21.753 A 2159.246 2159.246 0 0 1 17.767 21.776 Q 16.938 24.726 16.012 28.028 A 17671.005 17671.005 0 0 0 14.063 34.985 A 12464.695 12464.695 0 0 1 13.548 36.824 A 13745.234 13745.234 0 0 1 9.814 50.122 A 4721.484 4721.484 0 0 0 7.703 57.654 A 3736.625 3736.625 0 0 0 5.762 64.624 A 2721.314 2721.314 0 0 1 4.655 68.605 Q 4.127 70.495 3.652 72.185 A 1338.508 1338.508 0 0 1 2.588 75.952 Q 1.517 79.721 1.187 81.008 A 15.779 15.779 0 0 0 1.074 81.47 Q 0.684 82.935 0.439 83.765 A 31.898 31.898 0 0 0 0.394 83.922 Q 0.258 84.393 0.173 84.744 A 8.937 8.937 0 0 0 0.098 85.083 A 5.372 5.372 0 0 0 0.042 85.413 A 4.44 4.44 0 0 0 0 86.011 A 4.82 4.82 0 0 0 0.003 86.176 Q 0.017 86.588 0.098 87.231 Q 0.195 88.599 0.732 89.331 A 3.998 3.998 0 0 0 1.204 89.866 A 4.619 4.619 0 0 0 2.148 90.552 Q 2.515 90.772 3.293 91.074 A 24.436 24.436 0 0 0 3.857 91.284 A 28.416 28.416 0 0 0 4.459 91.493 Q 4.985 91.669 5.593 91.853 A 58.138 58.138 0 0 0 6.836 92.212 Q 8.594 92.7 10.791 93.042 A 27.268 27.268 0 0 0 12.496 93.251 A 33.272 33.272 0 0 0 15.527 93.384 A 47.769 47.769 0 0 0 28.809 91.528 A 43.983 43.983 0 0 0 30.203 91.102 A 38.508 38.508 0 0 0 40.381 86.108 A 30.843 30.843 0 0 0 48.828 77.368 A 24.537 24.537 0 0 0 50.48 74.349 Z M 18.75 48.169 A 301.812 301.812 0 0 0 17.383 53.662 A 375.475 375.475 0 0 0 16.016 59.595 A 341.658 341.658 0 0 0 14.867 64.536 Q 14.296 67.076 13.689 69.921 A 605.518 605.518 0 0 0 13.281 71.851 A 168091.21 168091.21 0 0 1 11.768 79.065 A 202655.745 202655.745 0 0 1 10.156 86.743 A 2.835 2.835 0 0 0 10.84 87.158 Q 11.23 87.329 11.719 87.427 L 13.672 87.817 A 11.97 11.97 0 0 0 15.016 87.98 A 15.029 15.029 0 0 0 16.016 88.013 A 23.084 23.084 0 0 0 22.69 86.996 A 27.713 27.713 0 0 0 24.951 86.206 Q 29.492 84.399 33.301 81.079 A 28.78 28.78 0 0 0 39.285 73.754 A 32.824 32.824 0 0 0 39.697 73.022 A 25.83 25.83 0 0 0 42.57 64.23 A 30.503 30.503 0 0 0 42.773 62.427 A 18.73 18.73 0 0 0 42.825 61.226 Q 42.836 60.048 42.687 58.989 A 12.009 12.009 0 0 0 42.432 57.69 A 14.653 14.653 0 0 0 41.358 54.775 A 13.061 13.061 0 0 0 40.869 53.882 A 15.837 15.837 0 0 0 38.89 51.233 A 14.504 14.504 0 0 0 38.525 50.855 A 18.366 18.366 0 0 0 35.925 48.683 A 17.016 17.016 0 0 0 35.742 48.56 A 52.08 52.08 0 0 1 28.51 51.782 A 60.369 60.369 0 0 1 25.879 52.661 A 8.593 8.593 0 0 1 25.006 52.857 Q 24.004 53.026 23.186 52.882 A 3.878 3.878 0 0 1 22.852 52.808 A 6.191 6.191 0 0 1 21.613 52.334 A 5.012 5.012 0 0 1 20.703 51.733 Q 19.824 51.001 19.336 50.024 A 6.616 6.616 0 0 1 18.966 49.138 A 4.788 4.788 0 0 1 18.75 48.169 Z M 19.971 43.677 A 42.072 42.072 0 0 0 20.41 41.724 Q 21.68 36.646 23.145 31.665 A 18150.838 18150.838 0 0 0 24.573 26.807 A 15543.263 15543.263 0 0 0 25.928 22.192 A 590.61 590.61 0 0 1 27.209 17.883 A 455.841 455.841 0 0 1 28.418 13.94 A 3762.686 3762.686 0 0 0 28.446 13.851 Q 29.307 11.087 29.956 8.987 A 1170.67 1170.67 0 0 0 30.371 7.642 A 26.744 26.744 0 0 1 32.839 6.945 A 21.656 21.656 0 0 1 37.695 6.372 A 14.087 14.087 0 0 1 40.544 6.645 A 9.378 9.378 0 0 1 45.85 9.644 A 8.206 8.206 0 0 1 47.019 11.387 Q 48.592 14.51 48.145 19.653 A 18.77 18.77 0 0 1 48.124 19.842 Q 47.963 21.261 47.571 22.8 A 30.516 30.516 0 0 1 46.631 25.806 Q 45.41 29.126 43.506 32.3 A 37.291 37.291 0 0 1 39.063 38.257 A 30.996 30.996 0 0 1 37.131 40.2 A 24.707 24.707 0 0 1 33.789 42.798 A 45.198 45.198 0 0 0 33.197 42.703 A 50.446 50.446 0 0 0 31.348 42.456 A 21.091 21.091 0 0 0 31.029 42.422 A 23.293 23.293 0 0 0 28.711 42.31 A 13.082 13.082 0 0 0 26.194 42.562 A 16.725 16.725 0 0 0 23.389 43.384 A 21.796 21.796 0 0 0 22.877 43.589 Q 21.358 44.219 20.376 44.915 A 5.994 5.994 0 0 0 19.434 45.728 A 107.64 107.64 0 0 0 19.714 44.678 A 92.526 92.526 0 0 0 19.971 43.677 Z" id="0" vector-effect="non-scaling-stroke"/><path d="M 110.596 56.43 A 126.445 126.445 0 0 0 111.328 55.396 A 14.832 14.832 0 0 0 111.376 55.331 Q 112.505 53.809 112.744 52.661 A 5.443 5.443 0 0 0 112.769 52.536 Q 112.967 51.458 112.598 50.903 A 1.309 1.309 0 0 0 112.564 50.855 Q 112.174 50.324 111.426 50.464 A 1.989 1.989 0 0 0 110.889 50.651 Q 110.376 50.912 109.863 51.489 Q 109.277 52.271 107.959 53.931 Q 107.217 54.865 106.368 55.953 A 452.476 452.476 0 0 0 104.98 57.739 A 147.566 147.566 0 0 1 104.135 58.823 A 170.056 170.056 0 0 1 101.416 62.183 A 117.618 117.618 0 0 1 99.548 64.38 A 95.297 95.297 0 0 1 97.754 66.382 Q 95.996 68.286 94.434 69.507 Q 92.871 70.728 91.895 70.728 Q 90.723 70.728 90.088 70.19 A 2.865 2.865 0 0 1 89.575 69.623 A 3.371 3.371 0 0 1 89.16 68.774 A 6.407 6.407 0 0 1 88.994 68.182 A 7.433 7.433 0 0 1 88.818 66.87 Q 88.77 65.845 88.867 64.966 L 89.355 62.524 L 89.697 60.815 L 89.99 59.351 A 67.659 67.659 0 0 1 90.149 58.582 A 89.496 89.496 0 0 1 90.332 57.739 A 1371.173 1371.173 0 0 0 90.534 56.81 Q 91.37 52.948 91.895 50.415 A 290.755 290.755 0 0 0 92.153 49.152 Q 92.42 47.833 92.609 46.826 A 86.451 86.451 0 0 0 92.773 45.923 Q 93.066 44.263 93.066 43.628 Q 93.066 43.142 93.009 42.914 A 0.574 0.574 0 0 0 92.969 42.798 Q 92.773 42.7 92.188 42.7 A 6.586 6.586 0 0 0 91.934 42.706 Q 91.482 42.723 90.771 42.798 A 14.328 14.328 0 0 0 90.217 42.868 Q 89.461 42.978 88.477 43.188 A 18.266 18.266 0 0 0 88.799 42.68 Q 90.491 39.906 90.088 38.159 A 6.024 6.024 0 0 0 89.8 37.239 A 4.377 4.377 0 0 0 88.281 35.278 A 8.298 8.298 0 0 0 87.559 34.862 Q 86.778 34.462 85.825 34.164 A 15.934 15.934 0 0 0 83.984 33.716 A 5.32 5.32 0 0 0 83.523 33.696 Q 81.396 33.696 78.32 35.278 A 20.767 20.767 0 0 0 77.598 35.668 Q 74.532 37.402 71.387 40.503 Q 67.871 43.97 64.893 48.853 A 33.971 33.971 0 0 0 63.959 50.484 A 36.78 36.78 0 0 0 60.547 59.692 A 37.291 37.291 0 0 0 60.326 60.649 Q 59.678 63.639 59.704 66.028 A 15.199 15.199 0 0 0 59.766 67.261 Q 60.059 70.435 61.133 72.437 A 10.861 10.861 0 0 0 61.192 72.545 Q 61.638 73.354 62.166 73.983 A 6.3 6.3 0 0 0 63.77 75.366 A 8.848 8.848 0 0 0 64.163 75.587 Q 64.749 75.895 65.306 76.069 A 4.668 4.668 0 0 0 66.699 76.294 A 19.729 19.729 0 0 0 67.294 76.245 A 21.21 21.21 0 0 0 72.559 75.024 A 16.331 16.331 0 0 0 73.098 74.806 Q 74.275 74.304 75.513 73.567 A 28.832 28.832 0 0 0 77.93 71.948 A 14.84 14.84 0 0 0 78.657 71.372 Q 81.066 69.341 83.105 65.942 A 26.982 26.982 0 0 0 83.098 66.18 Q 83.054 67.746 83.205 68.992 A 11.028 11.028 0 0 0 83.447 70.337 A 25.662 25.662 0 0 0 83.741 71.417 Q 83.89 71.92 84.045 72.35 A 10.965 10.965 0 0 0 84.375 73.169 Q 84.65 73.764 84.989 74.23 A 4.386 4.386 0 0 0 85.84 75.122 A 5.227 5.227 0 0 0 86.634 75.556 A 6.291 6.291 0 0 0 87.891 75.952 A 7.93 7.93 0 0 0 88.101 75.993 Q 89.18 76.188 90.381 76.099 Q 91.699 76.001 92.969 75.61 A 11.737 11.737 0 0 0 93.916 75.275 A 9.28 9.28 0 0 0 95.215 74.634 A 9.378 9.378 0 0 0 95.619 74.348 Q 96.533 73.666 97.699 72.498 A 41.001 41.001 0 0 0 98.877 71.265 A 87.881 87.881 0 0 0 100.539 69.402 A 106.191 106.191 0 0 0 103.369 65.991 A 228.204 228.204 0 0 0 107.813 60.23 Q 109.424 58.069 110.596 56.43 Z M 82.715 59.692 Q 83.203 57.739 83.887 55.103 A 95.919 95.919 0 0 0 84.802 51.257 A 83.754 83.754 0 0 0 85.059 50.024 Q 85.523 47.705 85.766 46.134 A 47.197 47.197 0 0 0 85.791 45.972 A 12.147 12.147 0 0 0 85.832 45.678 Q 85.997 44.375 85.647 44.457 A 0.21 0.21 0 0 0 85.645 44.458 A 7.671 7.671 0 0 0 85.132 44.58 Q 84.867 44.652 84.579 44.748 A 12.243 12.243 0 0 0 84.57 44.751 A 3.552 3.552 0 0 1 84.163 44.884 Q 83.953 44.939 83.706 44.983 A 8.021 8.021 0 0 1 83.301 45.044 Q 82.52 45.142 81.738 45.337 A 15.075 15.075 0 0 0 82.165 44.413 Q 82.565 43.454 82.666 42.749 A 10.215 10.215 0 0 0 82.72 42.31 Q 82.791 41.592 82.715 41.138 Q 82.617 40.454 82.324 40.063 A 1.088 1.088 0 0 0 81.645 39.821 Q 80.541 39.79 78.564 41.48 A 14.973 14.973 0 0 0 76.988 43.076 Q 75.402 44.912 73.572 47.886 A 72.937 72.937 0 0 0 72.363 49.927 Q 70.898 52.466 70.02 55.347 A 38.243 38.243 0 0 0 69.201 58.48 A 29.982 29.982 0 0 0 68.799 60.767 A 25.688 25.688 0 0 0 68.636 62.318 Q 68.537 63.673 68.618 64.814 A 12.813 12.813 0 0 0 68.652 65.21 A 10.992 10.992 0 0 0 68.765 66.03 Q 68.905 66.806 69.136 67.269 A 1.64 1.64 0 0 0 69.434 67.7 A 3.758 3.758 0 0 0 70.33 68.375 Q 70.998 68.728 71.757 68.728 A 3.315 3.315 0 0 0 71.875 68.726 A 6.046 6.046 0 0 0 73.69 68.367 A 7.782 7.782 0 0 0 74.658 67.944 A 14.761 14.761 0 0 0 76.428 66.857 A 18.332 18.332 0 0 0 77.49 66.04 A 23.278 23.278 0 0 0 79.561 64.11 A 20.675 20.675 0 0 0 80.029 63.599 Q 81.152 62.329 81.885 61.255 A 13.713 13.713 0 0 0 82.193 60.784 Q 82.608 60.118 82.702 59.748 A 1.097 1.097 0 0 0 82.715 59.692 Z" id="1" vector-effect="non-scaling-stroke"/><path d="M 127.148 18.872 Q 125.684 24.731 123.877 30.054 Q 122.07 35.376 120.166 40.015 A 139.799 139.799 0 0 1 118.024 44.971 A 109.322 109.322 0 0 1 116.357 48.462 Q 115.048 51.08 113.947 53.237 A 406.064 406.064 0 0 1 112.988 55.103 Q 112.012 62.134 112.988 66.431 A 10.603 10.603 0 0 0 113.494 68.079 Q 113.823 68.886 114.258 69.447 A 3.078 3.078 0 0 0 116.797 70.728 A 5.514 5.514 0 0 0 119.367 70.067 Q 120.387 69.536 121.387 68.579 A 20.803 20.803 0 0 0 124.064 65.426 A 25.989 25.989 0 0 0 125.391 63.306 Q 127.148 60.181 128.369 56.616 A 37.405 37.405 0 0 0 129.234 53.739 Q 129.713 51.857 129.883 50.22 Q 128.027 49.731 126.758 48.511 Q 125.488 47.29 125.488 45.239 Q 125.488 43.872 126.27 42.651 Q 127.051 41.431 128.125 40.552 A 8.501 8.501 0 0 1 130.469 39.185 Q 131.649 38.731 132.66 38.699 A 4.82 4.82 0 0 1 132.813 38.696 A 2.583 2.583 0 0 1 134.526 39.361 Q 134.914 39.692 135.264 40.188 A 6.818 6.818 0 0 1 135.645 40.796 A 11.234 11.234 0 0 1 136.52 42.848 Q 136.987 44.305 137.207 46.118 Q 141.113 46.021 145.41 44.946 A 52.128 52.128 0 0 0 152.556 42.618 A 47.612 47.612 0 0 0 153.516 42.212 A 4.982 4.982 0 0 1 153.998 42.021 Q 154.671 41.796 155.161 41.892 A 1.369 1.369 0 0 1 155.273 41.919 A 1.629 1.629 0 0 1 155.72 42.118 A 1.257 1.257 0 0 1 156.201 42.7 Q 156.387 43.146 156.262 43.676 A 2.414 2.414 0 0 1 156.152 44.019 A 1.888 1.888 0 0 1 155.494 44.848 A 2.772 2.772 0 0 1 154.98 45.142 A 47.226 47.226 0 0 1 150.342 47.437 Q 147.949 48.462 145.605 49.146 A 47.418 47.418 0 0 1 142.752 49.886 A 40.098 40.098 0 0 1 141.113 50.22 A 26.017 26.017 0 0 1 139.124 50.507 Q 138.113 50.61 137.207 50.61 A 22.841 22.841 0 0 1 136.404 54.667 Q 135.793 56.783 134.766 59.058 Q 132.715 63.599 129.785 67.456 A 31.74 31.74 0 0 1 125.562 72.044 A 27.445 27.445 0 0 1 123.291 73.853 Q 119.727 76.392 116.309 76.392 Q 115.283 76.392 113.636 76.125 A 34.997 34.997 0 0 1 113.477 76.099 Q 111.719 75.806 110.059 74.048 Q 108.398 72.29 107.227 68.433 A 19.284 19.284 0 0 1 106.655 65.876 Q 106.112 62.475 106.25 57.446 A 59.637 59.637 0 0 1 106.715 51.236 A 72.735 72.735 0 0 1 107.324 47.29 Q 108.301 41.919 109.668 36.548 A 138.523 138.523 0 0 1 112.744 26.147 A 279.277 279.277 0 0 1 114.417 21.362 A 206.626 206.626 0 0 1 116.016 17.065 A 128.338 128.338 0 0 1 117.153 14.211 Q 118.073 11.987 118.896 10.278 A 52.975 52.975 0 0 1 119.443 9.176 Q 120.364 7.373 120.898 6.763 A 5.923 5.923 0 0 1 122.245 5.54 A 5.414 5.414 0 0 1 122.949 5.151 A 11.951 11.951 0 0 1 124.466 4.573 A 10.083 10.083 0 0 1 125.244 4.37 A 7.719 7.719 0 0 1 126.218 4.22 Q 126.803 4.17 127.344 4.224 A 9.863 9.863 0 0 1 127.795 4.279 Q 128.418 4.37 128.711 4.517 A 0.571 0.571 0 0 1 128.899 4.781 Q 129.238 5.597 129.067 8.575 A 48.187 48.187 0 0 1 129.053 8.813 Q 128.82 12.541 127.297 18.315 A 101.044 101.044 0 0 1 127.148 18.872 Z" id="2" vector-effect="non-scaling-stroke"/><path d="M 173.23 38.025 A 13.962 13.962 0 0 0 171.973 38.892 Q 173.535 40.552 173.34 42.603 Q 173.193 44.141 172.772 46.558 A 120.366 120.366 0 0 1 172.461 48.267 A 19.948 19.948 0 0 1 172.308 48.813 Q 171.824 50.461 170.947 52.466 A 58.852 58.852 0 0 1 170.416 53.644 A 66.477 66.477 0 0 1 168.604 57.251 Q 167.285 59.692 165.723 62.085 A 44.579 44.579 0 0 1 164.445 63.94 A 35.547 35.547 0 0 1 162.549 66.333 A 26.523 26.523 0 0 1 162.308 66.606 Q 160.821 68.272 159.375 69.312 Q 157.813 70.435 156.543 70.435 A 4.873 4.873 0 0 1 155.689 70.364 Q 153.772 70.022 153.125 68.042 A 5.942 5.942 0 0 1 153.069 67.861 Q 152.376 65.486 153.223 61.255 A 3.769 3.769 0 0 1 153.23 61.186 Q 153.347 60.2 154.102 57.983 A 313.734 313.734 0 0 1 154.932 55.579 A 411.045 411.045 0 0 1 155.859 52.954 A 392.572 392.572 0 0 0 155.981 52.613 A 358.971 358.971 0 0 0 157.715 47.632 A 91.016 91.016 0 0 0 157.734 47.576 Q 158.325 45.831 158.693 44.512 A 28.873 28.873 0 0 0 158.984 43.384 Q 159.625 40.821 159.445 39.309 A 4.026 4.026 0 0 0 159.326 38.696 A 2.075 2.075 0 0 0 159.201 38.362 Q 158.752 37.423 157.357 36.988 A 7.345 7.345 0 0 0 156.25 36.743 A 11.859 11.859 0 0 0 155.176 36.694 A 11.859 11.859 0 0 0 154.102 36.743 A 21.275 21.275 0 0 0 153.971 36.77 Q 153.044 36.961 151.904 37.28 A 6.932 6.932 0 0 0 151.689 37.345 Q 151.103 37.529 150.485 37.835 A 11.992 11.992 0 0 0 149.316 38.501 A 4.556 4.556 0 0 1 149.987 39.692 Q 150.381 40.733 150.276 42.004 A 7.616 7.616 0 0 1 150.146 42.896 Q 149.811 44.543 149.227 46.611 A 89.624 89.624 0 0 1 148.438 49.243 Q 148.218 49.829 147.861 50.992 A 98.143 98.143 0 0 0 147.607 51.831 A 107.14 107.14 0 0 0 147.058 53.748 A 146.339 146.339 0 0 0 146.484 55.884 A 76.96 76.96 0 0 0 146.198 57.019 A 85.51 85.51 0 0 0 145.41 60.571 A 35.47 35.47 0 0 0 145.038 62.774 A 26.557 26.557 0 0 0 144.824 65.063 Q 144.677 67.67 145.161 69.782 A 10.713 10.713 0 0 0 146.729 73.462 Q 148.926 76.685 154.199 77.368 A 8.99 8.99 0 0 0 155.415 77.452 A 8.478 8.478 0 0 0 158.35 76.929 A 13.855 13.855 0 0 0 162.109 74.829 A 17.613 17.613 0 0 0 162.382 74.613 A 18.991 18.991 0 0 0 165.332 71.606 A 41.825 41.825 0 0 0 168.066 67.7 Q 167.578 69.653 167.139 71.655 Q 166.699 73.657 166.211 75.708 A 369.778 369.778 0 0 0 166.129 76.005 Q 165.512 78.242 164.85 80.753 A 612.391 612.391 0 0 0 163.477 86.06 Q 162.622 89.172 161.634 92.972 A 825.913 825.913 0 0 0 160.4 97.778 Q 158.691 104.517 156.445 112.72 Q 156.836 113.794 157.422 114.429 Q 158.008 115.063 158.496 115.552 Q 159.082 116.04 159.766 116.431 A 6.592 6.592 0 0 0 160.564 116.727 Q 161.318 116.952 162.044 116.952 A 4.612 4.612 0 0 0 163.135 116.821 A 2.278 2.278 0 0 0 164.416 115.983 Q 164.718 115.598 164.932 115.052 A 6.334 6.334 0 0 0 165.234 113.989 Q 166.278 108.386 167.245 103.494 A 675.897 675.897 0 0 1 168.701 96.313 A 3719.212 3719.212 0 0 1 169.665 91.711 Q 170.126 89.52 170.544 87.547 A 1905.768 1905.768 0 0 1 171.484 83.13 A 637.72 637.72 0 0 1 171.865 81.401 Q 172.43 78.851 172.961 76.562 A 369.329 369.329 0 0 1 174.023 72.095 A 165.544 165.544 0 0 1 175.232 66.528 A 121.826 121.826 0 0 1 176.514 61.548 Q 177.214 59.058 177.873 56.857 A 204.723 204.723 0 0 1 179.004 53.198 A 404.294 404.294 0 0 1 179.708 51.019 Q 180.045 49.984 180.354 49.059 A 201.1 201.1 0 0 1 181.055 46.997 A 44.678 44.678 0 0 0 181.568 45.425 Q 181.794 44.687 181.956 44.043 A 17.774 17.774 0 0 0 182.227 42.798 A 22.911 22.911 0 0 0 182.314 42.159 Q 182.65 39.426 182.08 38.11 Q 181.594 36.989 179.935 36.612 A 7.641 7.641 0 0 0 178.809 36.45 A 5.93 5.93 0 0 0 178.271 36.426 A 6.1 6.1 0 0 0 176.66 36.646 Q 176.08 36.761 175.414 36.998 A 14.012 14.012 0 0 0 174.463 37.378 A 10.587 10.587 0 0 0 173.23 38.025 Z" id="3" vector-effect="non-scaling-stroke"/><path d="M 231.055 19.946 L 238.867 16.431 Q 240.527 15.649 241.211 16.772 A 1.969 1.969 0 0 1 241.423 17.29 Q 241.743 18.492 241.274 21.077 A 27.47 27.47 0 0 1 241.211 21.411 Q 240.941 23.03 240.257 26.512 A 571.088 571.088 0 0 1 240.137 27.124 A 427.379 427.379 0 0 1 239.294 31.274 A 562.979 562.979 0 0 1 238.33 35.815 A 925.904 925.904 0 0 1 236.182 45.483 A 218.824 218.824 0 0 1 235.208 49.584 Q 234.589 52.081 233.984 54.224 A 13274.167 13274.167 0 0 1 233.074 57.591 Q 232.608 59.314 232.09 61.227 A 22873.797 22873.797 0 0 1 231.738 62.524 A 1633.268 1633.268 0 0 1 230.505 66.895 Q 229.121 71.779 227.269 78.221 A 5633.988 5633.988 0 0 1 225.488 84.399 Q 226.714 86.5 229.822 86.718 A 10.652 10.652 0 0 0 230.566 86.743 A 13.342 13.342 0 0 0 233.972 86.266 Q 235.552 85.849 237.286 85.065 A 32.063 32.063 0 0 0 240.088 83.618 A 31.982 31.982 0 0 0 245.258 79.858 Q 247.46 77.914 249.601 75.422 A 55.746 55.746 0 0 0 250.586 74.243 A 51.885 51.885 0 0 0 255.341 67.23 Q 257.305 63.791 259.033 59.739 A 86.914 86.914 0 0 0 259.521 58.569 A 62.368 62.368 0 0 0 262.734 48.007 Q 263.882 42.65 264.355 36.548 Q 264.844 29.712 263.672 24.536 Q 262.5 19.36 260.107 15.845 Q 257.715 12.329 254.248 10.571 A 16.425 16.425 0 0 0 247.62 8.841 A 19.437 19.437 0 0 0 246.582 8.813 A 26.78 26.78 0 0 0 236.548 10.864 Q 232.88 12.338 229.125 14.872 A 54.016 54.016 0 0 0 226.172 17.017 L 225.684 8.911 A 17.877 17.877 0 0 1 231.063 4.772 A 17.23 17.23 0 0 1 231.494 4.565 A 46.621 46.621 0 0 1 234.656 3.235 A 34.281 34.281 0 0 1 237.598 2.271 A 29.544 29.544 0 0 1 244.336 1.294 A 31.381 31.381 0 0 1 256.396 3.687 A 26.632 26.632 0 0 1 266.455 10.962 A 29.74 29.74 0 0 1 270.794 17.638 A 39.242 39.242 0 0 1 272.949 23.218 A 38.751 38.751 0 0 1 274.342 30.04 Q 274.901 34.844 274.512 40.454 A 48.609 48.609 0 0 1 273.259 48.45 A 58.435 58.435 0 0 1 272.217 52.222 A 71.553 71.553 0 0 1 267.236 64.185 A 70.307 70.307 0 0 1 259.961 75.317 A 57.572 57.572 0 0 1 251.401 84.046 A 53.448 53.448 0 0 1 250.781 84.546 Q 245.801 88.501 240.137 90.796 Q 234.473 93.091 228.418 93.091 A 16.927 16.927 0 0 1 226.269 92.832 A 22.252 22.252 0 0 1 224.414 92.407 Q 222.894 92.007 221.046 91.148 A 32.33 32.33 0 0 1 220.215 90.747 Q 218.022 89.651 215.659 87.7 A 34.917 34.917 0 0 1 215.332 87.427 Q 214.453 86.841 214.404 86.157 Q 214.355 85.474 214.746 84.79 Q 215.137 84.009 215.918 83.228 A 2.66 2.66 0 0 0 216.314 82.773 Q 216.959 81.87 217.773 79.761 Q 218.848 76.978 220.068 73.022 A 179.588 179.588 0 0 0 221.289 68.884 A 227.296 227.296 0 0 0 222.51 64.38 Q 223.73 59.692 224.805 55.2 A 299.924 299.924 0 0 0 225.806 50.879 A 231.708 231.708 0 0 0 226.66 46.899 Q 227.441 43.091 227.832 40.845 A 1707.878 1707.878 0 0 1 228.345 37.988 A 2186.292 2186.292 0 0 1 228.906 34.888 Q 229.395 32.056 229.98 28.296 A 150.644 150.644 0 0 0 230.542 24.329 A 201.168 201.168 0 0 0 231.055 19.946 Z" id="5" vector-effect="non-scaling-stroke"/><path d="M 286.23 38.11 Q 286.719 37.524 288.086 37.134 A 25.652 25.652 0 0 1 290.918 36.499 A 25.132 25.132 0 0 1 292.322 36.304 A 18.749 18.749 0 0 1 293.604 36.206 A 25.436 25.436 0 0 1 293.8 36.199 Q 294.798 36.167 295.004 36.248 A 0.2 0.2 0 0 1 295.02 36.255 A 0.049 0.049 0 0 1 295.03 36.28 Q 295.067 36.468 294.67 37.836 A 56.378 56.378 0 0 1 294.531 38.306 Q 294.128 39.648 293.587 41.314 A 220.067 220.067 0 0 1 293.066 42.896 A 362.977 362.977 0 0 1 291.333 47.968 A 396.335 396.335 0 0 1 291.211 48.315 A 123.801 123.801 0 0 0 290.753 49.643 Q 290.202 51.272 289.855 52.474 A 37.349 37.349 0 0 0 289.746 52.856 Q 289.29 54.498 288.664 56.522 A 185.399 185.399 0 0 1 288.574 56.812 A 87.832 87.832 0 0 0 287.421 60.846 A 80.278 80.278 0 0 0 287.354 61.108 A 30.607 30.607 0 0 0 286.857 63.393 A 24.435 24.435 0 0 0 286.621 65.063 A 10.61 10.61 0 0 0 286.579 65.576 Q 286.514 66.723 286.75 67.483 A 2.723 2.723 0 0 0 286.914 67.896 A 6.971 6.971 0 0 0 287.196 68.497 Q 287.567 69.191 287.988 69.507 A 2.203 2.203 0 0 0 288.678 69.862 A 2.006 2.006 0 0 0 289.258 69.946 A 4.744 4.744 0 0 0 290.641 69.718 Q 292.182 69.246 294.189 67.798 A 50.229 50.229 0 0 0 297.761 64.954 A 63.253 63.253 0 0 0 300.244 62.671 A 89.873 89.873 0 0 0 305.792 56.808 A 82.815 82.815 0 0 0 305.957 56.616 A 113.258 113.258 0 0 0 307.19 55.154 Q 308.508 53.563 309.375 52.375 A 28.155 28.155 0 0 0 309.863 51.685 A 5.466 5.466 0 0 1 310.405 51.095 Q 310.929 50.608 311.475 50.415 Q 312.141 50.18 312.619 50.385 A 1.153 1.153 0 0 1 312.842 50.513 Q 313.379 50.903 313.428 51.782 Q 313.464 52.442 313.088 53.268 A 6.383 6.383 0 0 1 312.793 53.833 A 33.529 33.529 0 0 1 311.546 55.834 Q 310.868 56.847 310.032 57.97 A 78.12 78.12 0 0 1 308.203 60.327 A 96.422 96.422 0 0 1 301.758 67.554 Q 298.34 71.021 295.068 73.462 A 23.153 23.153 0 0 1 293.509 74.536 Q 291.284 75.928 289.746 76.001 Q 288.086 76.099 286.475 75.464 A 10.321 10.321 0 0 1 283.545 73.706 A 10.096 10.096 0 0 1 281.348 71.069 A 7.104 7.104 0 0 1 280.386 68.102 A 6.977 6.977 0 0 1 280.371 67.896 Q 280.099 65.626 280.333 61.795 A 75.246 75.246 0 0 1 280.371 61.206 A 82.834 82.834 0 0 1 281.35 53.069 A 90.536 90.536 0 0 1 281.445 52.515 A 72.796 72.796 0 0 1 283.005 45.584 A 65.166 65.166 0 0 1 283.447 44.067 A 30.598 30.598 0 0 1 284.238 41.778 Q 285.081 39.641 286.061 38.33 A 8.459 8.459 0 0 1 286.23 38.11 Z M 299.151 18.601 A 5.214 5.214 0 0 0 299.707 17.31 A 5.72 5.72 0 0 0 299.895 16.419 Q 299.979 15.789 299.951 15.063 Q 299.902 13.794 299.512 12.769 A 4.829 4.829 0 0 0 299.28 12.251 A 3.854 3.854 0 0 0 298.389 11.108 A 1.951 1.951 0 0 0 297.069 10.623 Q 296.835 10.623 296.582 10.669 A 2.965 2.965 0 0 0 296.448 10.697 Q 295.743 10.859 294.878 11.402 A 11.003 11.003 0 0 0 294.043 11.987 Q 292.578 13.11 291.602 14.722 A 6.986 6.986 0 0 0 291.588 14.745 Q 290.714 16.199 290.714 17.813 A 6.055 6.055 0 0 0 290.723 18.14 A 3.425 3.425 0 0 0 291.057 19.431 Q 291.572 20.519 292.871 21.509 A 1.772 1.772 0 0 0 293.439 21.838 Q 293.828 21.976 294.303 21.941 A 3.056 3.056 0 0 0 294.629 21.899 Q 295.703 21.704 296.729 21.069 A 6.828 6.828 0 0 0 297.35 20.634 A 7.732 7.732 0 0 0 298.584 19.409 A 6.832 6.832 0 0 0 299.151 18.601 Z" id="6" vector-effect="non-scaling-stroke"/><path d="M 355.029 56.43 A 126.445 126.445 0 0 0 355.762 55.396 A 14.832 14.832 0 0 0 355.81 55.331 Q 356.939 53.809 357.178 52.661 A 5.443 5.443 0 0 0 357.202 52.536 Q 357.401 51.458 357.031 50.903 A 1.309 1.309 0 0 0 356.997 50.855 Q 356.607 50.324 355.859 50.464 A 1.989 1.989 0 0 0 355.322 50.651 Q 354.81 50.912 354.297 51.489 Q 353.711 52.271 352.393 53.931 Q 351.651 54.865 350.801 55.953 A 452.476 452.476 0 0 0 349.414 57.739 A 147.566 147.566 0 0 1 348.569 58.823 A 170.056 170.056 0 0 1 345.85 62.183 A 117.618 117.618 0 0 1 343.982 64.38 A 95.297 95.297 0 0 1 342.188 66.382 Q 340.43 68.286 338.867 69.507 Q 337.305 70.728 336.328 70.728 Q 335.156 70.728 334.521 70.19 A 2.865 2.865 0 0 1 334.009 69.623 A 3.371 3.371 0 0 1 333.594 68.774 A 6.407 6.407 0 0 1 333.428 68.182 A 7.433 7.433 0 0 1 333.252 66.87 Q 333.203 65.845 333.301 64.966 L 333.789 62.524 L 334.131 60.815 L 334.424 59.351 A 67.659 67.659 0 0 1 334.583 58.582 A 89.496 89.496 0 0 1 334.766 57.739 A 1371.173 1371.173 0 0 0 334.967 56.81 Q 335.804 52.948 336.328 50.415 A 290.755 290.755 0 0 0 336.587 49.152 Q 336.853 47.833 337.042 46.826 A 86.451 86.451 0 0 0 337.207 45.923 Q 337.5 44.263 337.5 43.628 Q 337.5 43.142 337.443 42.914 A 0.574 0.574 0 0 0 337.402 42.798 Q 337.207 42.7 336.621 42.7 A 6.586 6.586 0 0 0 336.368 42.706 Q 335.915 42.723 335.205 42.798 A 14.328 14.328 0 0 0 334.651 42.868 Q 333.894 42.978 332.91 43.188 A 18.266 18.266 0 0 0 333.232 42.68 Q 334.925 39.906 334.521 38.159 A 6.024 6.024 0 0 0 334.233 37.239 A 4.377 4.377 0 0 0 332.715 35.278 A 8.298 8.298 0 0 0 331.993 34.862 Q 331.212 34.462 330.258 34.164 A 15.934 15.934 0 0 0 328.418 33.716 A 5.32 5.32 0 0 0 327.957 33.696 Q 325.83 33.696 322.754 35.278 A 20.767 20.767 0 0 0 322.032 35.668 Q 318.965 37.402 315.82 40.503 Q 312.305 43.97 309.326 48.853 A 33.971 33.971 0 0 0 308.392 50.484 A 36.78 36.78 0 0 0 304.98 59.692 A 37.291 37.291 0 0 0 304.76 60.649 Q 304.112 63.639 304.137 66.028 A 15.199 15.199 0 0 0 304.199 67.261 Q 304.492 70.435 305.566 72.437 A 10.861 10.861 0 0 0 305.626 72.545 Q 306.072 73.354 306.6 73.983 A 6.3 6.3 0 0 0 308.203 75.366 A 8.848 8.848 0 0 0 308.597 75.587 Q 309.182 75.895 309.74 76.069 A 4.668 4.668 0 0 0 311.133 76.294 A 19.729 19.729 0 0 0 311.728 76.245 A 21.21 21.21 0 0 0 316.992 75.024 A 16.331 16.331 0 0 0 317.532 74.806 Q 318.709 74.304 319.947 73.567 A 28.832 28.832 0 0 0 322.363 71.948 A 14.84 14.84 0 0 0 323.091 71.372 Q 325.5 69.341 327.539 65.942 A 26.982 26.982 0 0 0 327.531 66.18 Q 327.487 67.746 327.638 68.992 A 11.028 11.028 0 0 0 327.881 70.337 A 25.662 25.662 0 0 0 328.175 71.417 Q 328.324 71.92 328.479 72.35 A 10.965 10.965 0 0 0 328.809 73.169 Q 329.083 73.764 329.422 74.23 A 4.386 4.386 0 0 0 330.273 75.122 A 5.227 5.227 0 0 0 331.067 75.556 A 6.291 6.291 0 0 0 332.324 75.952 A 7.93 7.93 0 0 0 332.535 75.993 Q 333.614 76.188 334.814 76.099 Q 336.133 76.001 337.402 75.61 A 11.737 11.737 0 0 0 338.349 75.275 A 9.28 9.28 0 0 0 339.648 74.634 A 9.378 9.378 0 0 0 340.052 74.348 Q 340.967 73.666 342.133 72.498 A 41.001 41.001 0 0 0 343.311 71.265 A 87.881 87.881 0 0 0 344.972 69.402 A 106.191 106.191 0 0 0 347.803 65.991 A 228.204 228.204 0 0 0 352.246 60.23 Q 353.857 58.069 355.029 56.43 Z M 327.148 59.692 Q 327.637 57.739 328.32 55.103 A 95.919 95.919 0 0 0 329.236 51.257 A 83.754 83.754 0 0 0 329.492 50.024 Q 329.956 47.705 330.2 46.134 A 47.197 47.197 0 0 0 330.225 45.972 A 12.147 12.147 0 0 0 330.266 45.678 Q 330.431 44.375 330.081 44.457 A 0.21 0.21 0 0 0 330.078 44.458 A 7.671 7.671 0 0 0 329.565 44.58 Q 329.301 44.652 329.013 44.748 A 12.243 12.243 0 0 0 329.004 44.751 A 3.552 3.552 0 0 1 328.597 44.884 Q 328.387 44.939 328.14 44.983 A 8.021 8.021 0 0 1 327.734 45.044 Q 326.953 45.142 326.172 45.337 A 15.075 15.075 0 0 0 326.598 44.413 Q 326.999 43.454 327.1 42.749 A 10.215 10.215 0 0 0 327.153 42.31 Q 327.224 41.592 327.148 41.138 Q 327.051 40.454 326.758 40.063 A 1.088 1.088 0 0 0 326.078 39.821 Q 324.975 39.79 322.998 41.48 A 14.973 14.973 0 0 0 321.422 43.076 Q 319.836 44.912 318.005 47.886 A 72.937 72.937 0 0 0 316.797 49.927 Q 315.332 52.466 314.453 55.347 A 38.243 38.243 0 0 0 313.634 58.48 A 29.982 29.982 0 0 0 313.232 60.767 A 25.688 25.688 0 0 0 313.069 62.318 Q 312.97 63.673 313.052 64.814 A 12.813 12.813 0 0 0 313.086 65.21 A 10.992 10.992 0 0 0 313.199 66.03 Q 313.338 66.806 313.57 67.269 A 1.64 1.64 0 0 0 313.867 67.7 A 3.758 3.758 0 0 0 314.764 68.375 Q 315.431 68.728 316.19 68.728 A 3.315 3.315 0 0 0 316.309 68.726 A 6.046 6.046 0 0 0 318.124 68.367 A 7.782 7.782 0 0 0 319.092 67.944 A 14.761 14.761 0 0 0 320.862 66.857 A 18.332 18.332 0 0 0 321.924 66.04 A 23.278 23.278 0 0 0 323.995 64.11 A 20.675 20.675 0 0 0 324.463 63.599 Q 325.586 62.329 326.318 61.255 A 13.713 13.713 0 0 0 326.627 60.784 Q 327.041 60.118 327.136 59.748 A 1.097 1.097 0 0 0 327.148 59.692 Z" id="7" vector-effect="non-scaling-stroke"/><path d="M 343.994 75.757 A 2.413 2.413 0 0 0 344.469 75.493 Q 345.025 75.099 345.508 74.341 Q 345.801 73.95 347.021 71.948 A 13202.869 13202.869 0 0 1 347.837 70.611 Q 348.792 69.046 350 67.065 A 1240.234 1240.234 0 0 0 351.819 64.075 A 1526.901 1526.901 0 0 0 353.76 60.864 A 1755.064 1755.064 0 0 0 355.713 57.617 A 1521.982 1521.982 0 0 0 357.568 54.517 Q 358.698 52.625 359.655 51.038 A 539.639 539.639 0 0 1 360.742 49.243 Q 361.81 47.488 362.282 46.687 A 33.435 33.435 0 0 0 362.5 46.313 A 8.863 8.863 0 0 1 363.254 46.54 A 11.579 11.579 0 0 1 364.16 46.899 A 3.771 3.771 0 0 0 364.438 47.01 Q 364.859 47.158 365.359 47.228 A 6.871 6.871 0 0 0 366.309 47.29 Q 366.968 47.29 367.38 47.263 A 5.678 5.678 0 0 0 367.627 47.241 Q 368.066 47.192 368.311 47.192 A 2.484 2.484 0 0 0 368.799 47.144 A 1.729 1.729 0 0 1 368.949 47.121 Q 369.195 47.095 369.629 47.095 A 1.91 1.91 0 0 1 369.978 47.125 A 1.283 1.283 0 0 1 370.898 47.778 A 2.862 2.862 0 0 1 371.172 48.438 A 3.373 3.373 0 0 1 371.289 49.341 A 3.706 3.706 0 0 1 371.288 49.406 Q 371.265 50.755 370.264 52.71 A 66.652 66.652 0 0 1 369.561 54.042 Q 368.719 55.597 367.578 57.544 A 43.962 43.962 0 0 1 367.227 58.231 A 48.924 48.924 0 0 1 366.064 60.327 Q 365.234 61.743 364.502 63.159 A 37.515 37.515 0 0 0 364.063 64.035 A 31.67 31.67 0 0 0 363.232 65.894 A 10.023 10.023 0 0 0 362.841 67.039 A 7.485 7.485 0 0 0 362.598 68.384 A 8.128 8.128 0 0 0 362.58 68.925 Q 362.58 70.159 362.939 71.558 A 9.176 9.176 0 0 0 364.404 74.683 A 8.057 8.057 0 0 0 365.263 75.683 A 9.232 9.232 0 0 0 367.09 77.075 A 6.008 6.008 0 0 0 367.701 77.388 Q 368.516 77.75 369.508 77.914 A 10.9 10.9 0 0 0 371.289 78.052 Q 372.739 78.052 374.274 77.535 A 13.413 13.413 0 0 0 376.416 76.587 A 28.054 28.054 0 0 0 378.766 75.146 A 34.825 34.825 0 0 0 381.787 72.827 A 50.252 50.252 0 0 0 386.914 67.749 A 111.442 111.442 0 0 0 388.397 66.024 A 94.316 94.316 0 0 0 391.357 62.329 A 121.934 121.934 0 0 0 391.909 61.597 Q 392.719 60.514 393.424 59.517 A 71.912 71.912 0 0 0 394.775 57.544 Q 396.191 55.396 396.777 54.419 A 9.36 9.36 0 0 0 396.917 54.178 Q 397.644 52.881 397.51 52.075 A 2.737 2.737 0 0 0 397.473 51.894 Q 397.301 51.165 396.777 50.903 A 1.399 1.399 0 0 0 396.143 50.757 Q 395.956 50.757 395.754 50.801 A 2.484 2.484 0 0 0 395.41 50.903 A 2.384 2.384 0 0 0 394.7 51.32 A 2.795 2.795 0 0 0 394.141 51.978 A 26.029 26.029 0 0 0 394.096 52.037 Q 393.509 52.824 392.334 54.517 Q 391.647 55.505 390.791 56.633 A 92.845 92.845 0 0 1 389.355 58.472 A 97.7 97.7 0 0 1 388.458 59.576 A 111.846 111.846 0 0 1 385.547 62.964 A 61.875 61.875 0 0 1 384.518 64.087 A 54.646 54.646 0 0 1 381.396 67.163 A 31.927 31.927 0 0 1 379.45 68.798 A 23.995 23.995 0 0 1 377.295 70.288 A 11.224 11.224 0 0 1 376.466 70.749 Q 375.787 71.087 375.151 71.275 A 5.36 5.36 0 0 1 373.633 71.509 Q 371.387 71.509 370.898 70.728 A 3.697 3.697 0 0 1 370.693 70.351 Q 370.524 69.993 370.401 69.556 A 7.481 7.481 0 0 1 370.215 68.677 A 4.981 4.981 0 0 1 370.19 68.181 Q 370.19 66.418 371.387 64.282 A 59.316 59.316 0 0 1 372.583 62.239 A 46.676 46.676 0 0 1 374.121 59.888 A 107.5 107.5 0 0 0 374.408 59.487 Q 375.401 58.091 376.256 56.795 A 66.129 66.129 0 0 0 377.93 54.126 Q 379.492 51.489 379.199 49.048 Q 379.102 47.876 378.76 46.46 A 10.326 10.326 0 0 0 377.734 43.823 A 6.691 6.691 0 0 0 375.977 41.772 A 3.853 3.853 0 0 0 374.45 41.069 A 5.46 5.46 0 0 0 373.242 40.942 Q 372.26 40.942 371.655 41.043 A 3.235 3.235 0 0 0 371.24 41.138 A 3.028 3.028 0 0 1 370.848 41.226 Q 370.199 41.333 369.043 41.333 A 8.234 8.234 0 0 1 368.704 41.326 Q 367.888 41.293 367.48 41.089 A 11.362 11.362 0 0 1 367.181 40.934 Q 366.896 40.781 366.699 40.649 Q 367.773 39.087 368.164 37.134 Q 368.473 35.588 368.415 34.47 A 5.577 5.577 0 0 0 368.359 33.911 A 7.619 7.619 0 0 0 368.011 32.306 A 8.985 8.985 0 0 0 367.041 30.298 Q 366.234 29.034 364.594 28.679 A 6.667 6.667 0 0 0 363.184 28.54 A 3.36 3.36 0 0 0 362.245 28.677 Q 361.691 28.838 361.123 29.186 A 7.182 7.182 0 0 0 360.156 29.907 A 14.927 14.927 0 0 0 359.208 30.814 A 17.177 17.177 0 0 0 357.324 33.179 A 19.873 19.873 0 0 0 355.273 37.134 A 12.514 12.514 0 0 0 354.937 38.134 Q 354.628 39.211 354.65 40.023 A 3.441 3.441 0 0 0 354.688 40.454 Q 354.831 41.53 355.08 42.053 A 1.3 1.3 0 0 0 355.273 42.358 Q 355.566 42.688 356.244 43.32 A 53.431 53.431 0 0 0 356.738 43.774 Q 356.152 44.849 354.883 47.241 Q 353.613 49.634 352.1 52.661 A 1137.77 1137.77 0 0 0 350.549 55.774 A 1329.819 1329.819 0 0 0 348.926 59.058 A 7952.539 7952.539 0 0 0 347.327 62.305 A 6285.277 6285.277 0 0 0 345.85 65.308 Q 344.434 68.188 343.408 70.239 L 342.09 72.876 A 5.515 5.515 0 0 0 341.876 73.356 Q 341.545 74.214 341.699 74.829 Q 341.895 75.61 342.529 75.855 A 1.554 1.554 0 0 0 343.092 75.956 Q 343.51 75.956 343.994 75.757 Z" id="8" vector-effect="non-scaling-stroke"/><path d="M 416.785 38.025 A 13.962 13.962 0 0 0 415.527 38.892 Q 417.09 40.552 416.895 42.603 Q 416.748 44.141 416.327 46.558 A 120.366 120.366 0 0 1 416.016 48.267 A 19.948 19.948 0 0 1 415.863 48.813 Q 415.379 50.461 414.502 52.466 A 58.852 58.852 0 0 1 413.971 53.644 A 66.477 66.477 0 0 1 412.158 57.251 Q 410.84 59.692 409.277 62.085 A 44.579 44.579 0 0 1 408 63.94 A 35.547 35.547 0 0 1 406.104 66.333 A 26.523 26.523 0 0 1 405.863 66.606 Q 404.375 68.272 402.93 69.312 Q 401.367 70.435 400.098 70.435 A 4.873 4.873 0 0 1 399.244 70.364 Q 397.326 70.022 396.68 68.042 A 5.942 5.942 0 0 1 396.624 67.861 Q 395.931 65.486 396.777 61.255 A 3.769 3.769 0 0 1 396.785 61.186 Q 396.902 60.2 397.656 57.983 A 313.734 313.734 0 0 1 398.486 55.579 A 411.045 411.045 0 0 1 399.414 52.954 A 392.572 392.572 0 0 0 399.536 52.613 A 358.971 358.971 0 0 0 401.27 47.632 A 91.016 91.016 0 0 0 401.289 47.576 Q 401.88 45.831 402.247 44.512 A 28.873 28.873 0 0 0 402.539 43.384 Q 403.18 40.821 403 39.309 A 4.026 4.026 0 0 0 402.881 38.696 A 2.075 2.075 0 0 0 402.756 38.362 Q 402.306 37.423 400.912 36.988 A 7.345 7.345 0 0 0 399.805 36.743 A 11.859 11.859 0 0 0 398.73 36.694 A 11.859 11.859 0 0 0 397.656 36.743 A 21.275 21.275 0 0 0 397.525 36.77 Q 396.599 36.961 395.459 37.28 A 6.932 6.932 0 0 0 395.243 37.345 Q 394.658 37.529 394.039 37.835 A 11.992 11.992 0 0 0 392.871 38.501 A 4.556 4.556 0 0 1 393.542 39.692 Q 393.936 40.733 393.83 42.004 A 7.616 7.616 0 0 1 393.701 42.896 Q 393.365 44.543 392.782 46.611 A 89.624 89.624 0 0 1 391.992 49.243 Q 391.772 49.829 391.415 50.992 A 98.143 98.143 0 0 0 391.162 51.831 A 107.14 107.14 0 0 0 390.613 53.748 A 146.339 146.339 0 0 0 390.039 55.884 A 76.96 76.96 0 0 0 389.752 57.019 A 85.51 85.51 0 0 0 388.965 60.571 A 35.47 35.47 0 0 0 388.593 62.774 A 26.557 26.557 0 0 0 388.379 65.063 Q 388.231 67.67 388.716 69.782 A 10.713 10.713 0 0 0 390.283 73.462 Q 392.48 76.685 397.754 77.368 A 8.99 8.99 0 0 0 398.97 77.452 A 8.478 8.478 0 0 0 401.904 76.929 A 13.855 13.855 0 0 0 405.664 74.829 A 17.613 17.613 0 0 0 405.937 74.613 A 18.991 18.991 0 0 0 408.887 71.606 A 41.825 41.825 0 0 0 411.621 67.7 Q 411.133 69.653 410.693 71.655 Q 410.254 73.657 409.766 75.708 A 369.778 369.778 0 0 0 409.684 76.005 Q 409.067 78.242 408.404 80.753 A 612.391 612.391 0 0 0 407.031 86.06 Q 406.177 89.172 405.189 92.972 A 825.913 825.913 0 0 0 403.955 97.778 Q 402.246 104.517 400 112.72 Q 400.391 113.794 400.977 114.429 Q 401.563 115.063 402.051 115.552 Q 402.637 116.04 403.32 116.431 A 6.592 6.592 0 0 0 404.118 116.727 Q 404.873 116.952 405.599 116.952 A 4.612 4.612 0 0 0 406.689 116.821 A 2.278 2.278 0 0 0 407.97 115.983 Q 408.273 115.598 408.487 115.052 A 6.334 6.334 0 0 0 408.789 113.989 Q 409.833 108.386 410.799 103.494 A 675.897 675.897 0 0 1 412.256 96.313 A 3719.212 3719.212 0 0 1 413.22 91.711 Q 413.681 89.52 414.098 87.547 A 1905.768 1905.768 0 0 1 415.039 83.13 A 637.72 637.72 0 0 1 415.42 81.401 Q 415.985 78.851 416.515 76.562 A 369.329 369.329 0 0 1 417.578 72.095 A 165.544 165.544 0 0 1 418.787 66.528 A 121.826 121.826 0 0 1 420.068 61.548 Q 420.769 59.058 421.428 56.857 A 204.723 204.723 0 0 1 422.559 53.198 A 404.294 404.294 0 0 1 423.262 51.019 Q 423.6 49.984 423.909 49.059 A 201.1 201.1 0 0 1 424.609 46.997 A 44.678 44.678 0 0 0 425.123 45.425 Q 425.348 44.687 425.511 44.043 A 17.774 17.774 0 0 0 425.781 42.798 A 22.911 22.911 0 0 0 425.869 42.159 Q 426.205 39.426 425.635 38.11 Q 425.149 36.989 423.489 36.612 A 7.641 7.641 0 0 0 422.363 36.45 A 5.93 5.93 0 0 0 421.826 36.426 A 6.1 6.1 0 0 0 420.215 36.646 Q 419.635 36.761 418.969 36.998 A 14.012 14.012 0 0 0 418.018 37.378 A 10.587 10.587 0 0 0 416.785 38.025 Z" id="9" vector-effect="non-scaling-stroke"/></g></svg>
